<svg xmlns="http://www.w3.org/2000/svg" height="800" width="1200" viewBox="-64.81395 -46.2235 561.7209 277.341"><path fill="#FD0001" d="M42.907 30.894h130.154v130.152H42.907z"/><path fill="#FFF" d="M75.924 127.183h12.711v8.856H67.36V55.841h8.564zm72.826-62.588h-13.081v25.712h12.225v9.357h-12.225v27.509h13.081v8.866h-21.645V55.851h21.645zM96.097 136.01v-8.774l2.683-.01c3.523-.02 9.483-2.473 10.363-8.02.85-5.377.22-9.27-6.687-21.07l-.092-.198c-4.81-7.843-9.371-14.694-7.668-25.443 1.85-11.682 10.987-16.829 19.298-16.675l2.685-.003v8.774l-2.685.01c-3.521.019-9.648 2.434-10.529 7.982-.85 5.375-.262 8.852 6.467 20.5l.18.298c5.001 8.049 9.503 15.166 7.8 25.914-1.851 11.685-10.818 16.869-19.131 16.716h-2.684"/><path fill="#010101" d="M197.357 62.319h8.274v1.366h-3.362v9.444h-1.55v-9.444h-3.362zm11.403 4.519h5.166v-4.522h1.549v10.813h-1.549v-4.924h-5.166v4.924h-1.552V62.316h1.552zm15.645-3.153h-4.507v3.152h4.107v1.367h-4.107v3.555h4.507v1.369h-6.056V62.317h6.056zm11.416 7.266h7.257v2.178h-9.751v-17.35h2.494zm8.764-5.024c0 4.372 2.532 7.444 6.938 7.444 4.411 0 6.938-3.073 6.938-7.444 0-4.266-2.553-7.443-6.938-7.443-4.387-.001-6.938 3.177-6.938 7.443m2.177 0c0-2.926 1.57-5.649 4.76-5.628 3.188-.021 4.764 2.702 4.764 5.628 0 2.866-1.432 5.629-4.764 5.629-3.333 0-4.76-2.763-4.76-5.629m23.756 4.382h.041V58.724h2.06v14.405h-2.642l-6.556-11.863h-.041v11.863h-2.061V58.724h2.807zm5.575 2.821h4.24c4.743 0 7.662-2.498 7.662-7.328 0-4.437-3.396-7.077-7.662-7.077h-4.24zm2.055-12.59h2.411c2.967 0 5.255 1.982 5.255 5.347 0 3.715-1.955 5.429-5.499 5.429h-2.167zm12.154 5.387c0 4.372 2.529 7.444 6.938 7.444 4.407 0 6.938-3.073 6.938-7.444 0-4.266-2.549-7.443-6.938-7.443-4.39-.001-6.938 3.177-6.938 7.443m2.175 0c0-2.926 1.576-5.649 4.762-5.628 3.184-.021 4.761 2.702 4.761 5.628 0 2.866-1.428 5.629-4.761 5.629-3.336 0-4.762-2.763-4.762-5.629m23.755 4.382h.044V58.724h2.056v14.405h-2.639l-6.559-11.863h-.039v11.863h-2.059V58.724h2.805zm19.614-11.913c-1.265-.497-1.961-.721-3.26-.721-1.396 0-3.041.496-3.041 2.31 0 3.329 7.463 2.558 7.463 8.269 0 3.697-2.849 5.159-6.34 5.159-1.225 0-2.41-.349-3.551-.72l.246-2.304c.848.348 2.326.843 3.604.843 1.416 0 3.416-.794 3.416-2.83 0-3.873-7.465-2.806-7.465-8.194 0-3.076 2.426-4.711 5.564-4.711 1.152 0 2.518.197 3.704.607zm14.04 2.706a5.807 5.807 0 00-2.977-.804c-3.324 0-5.537 2.393-5.537 5.628 0 3.382 2.438 5.629 5.434 5.629 1.033 0 2.418-.268 3.141-.702l.128 2.003c-1.097.453-2.438.515-3.288.515-4.564 0-7.589-2.93-7.589-7.505 0-4.435 3.211-7.383 7.608-7.383 1.117 0 2.214.164 3.246.604zm4.772 3.635h6.901v-6.013h2.057v14.405h-2.057v-6.576h-6.901v6.576h-2.054V58.724h2.054zm11.947 1.19c0 4.372 2.534 7.444 6.938 7.444 4.412 0 6.939-3.073 6.939-7.444 0-4.266-2.554-7.443-6.939-7.443-4.384-.001-6.938 3.177-6.938 7.443m2.181 0c0-2.926 1.571-5.649 4.76-5.628 3.188-.021 4.762 2.702 4.762 5.628 0 2.866-1.428 5.629-4.762 5.629-3.332 0-4.76-2.763-4.76-5.629m13.831 0c0 4.372 2.53 7.444 6.938 7.444 4.408 0 6.938-3.073 6.938-7.444 0-4.266-2.552-7.443-6.938-7.443-4.388-.001-6.938 3.177-6.938 7.443m2.179 0c0-2.926 1.573-5.649 4.762-5.628 3.187-.021 4.763 2.702 4.763 5.628 0 2.866-1.431 5.629-4.763 5.629-3.337 0-4.762-2.763-4.762-5.629m16.617 5.387h6.029v1.815h-8.092V58.724h2.063zm-203.988 64.684h2.495v-6.938h2.434c3.127 0 6.122-1.358 6.122-5.215 0-3.955-2.945-5.192-6.496-5.192h-4.555zm2.495-15.172h2.109c1.541 0 3.826.799 3.826 2.99 0 2.291-1.937 3.063-3.477 3.063h-2.458zm10.402 7.97c0 4.369 2.53 7.443 6.939 7.443 4.409 0 6.939-3.074 6.939-7.443 0-4.271-2.551-7.443-6.939-7.443s-6.939 3.174-6.939 7.443m2.178 0c0-2.928 1.575-5.648 4.762-5.631 3.187-.02 4.761 2.703 4.761 5.631 0 2.863-1.427 5.627-4.761 5.627s-4.762-2.761-4.762-5.627m16.72 5.387h6.03v1.813h-8.089v-14.403h2.059zm8.352-12.587h2.06v14.401h-2.06zm4.165-.003h11.024v1.817h-4.483v12.588h-2.058V123.41h-4.483zm13.149.003h2.06v14.401h-2.06zm15.705 2.375a5.81 5.81 0 00-2.978-.806c-3.325 0-5.535 2.396-5.535 5.631 0 3.381 2.437 5.627 5.437 5.627 1.033 0 2.416-.271 3.138-.697l.126 1.999c-1.094.451-2.438.515-3.283.515-4.564 0-7.594-2.928-7.594-7.506 0-4.436 3.211-7.381 7.613-7.381 1.115 0 2.209.161 3.242.604zm1.127 12.027h2.166l1.463-3.633h7.06l1.464 3.633h2.253l-6.09-14.403h-2.166zm10.027-5.327h-5.738l2.885-7.144zm8.558 3.512h6.032v1.813h-8.089v-14.403h2.057zm22.375-12.921c-1.262-.493-1.955-.72-3.254-.72-1.4 0-3.05.496-3.05 2.31 0 3.329 7.466 2.56 7.466 8.271 0 3.698-2.847 5.158-6.342 5.158-1.223 0-2.408-.348-3.545-.719l.245-2.305c.839.35 2.326.842 3.601.842 1.424 0 3.42-.792 3.42-2.828 0-3.873-7.465-2.809-7.465-8.195 0-3.072 2.422-4.712 5.567-4.712 1.146 0 2.519.199 3.702.606zm14.161 2.709a5.824 5.824 0 00-2.974-.806c-3.327 0-5.535 2.396-5.535 5.631 0 3.381 2.437 5.627 5.435 5.627 1.033 0 2.416-.271 3.138-.697l.124 1.999c-1.098.451-2.438.515-3.283.515-4.564 0-7.59-2.928-7.59-7.506 0-4.436 3.211-7.381 7.611-7.381 1.113 0 2.211.161 3.24.604zm2.741-2.375h2.056v14.401h-2.056zm13.934 1.814h-6.011v4.194h5.472v1.817h-5.472v4.762h6.011v1.813h-8.069v-14.403h8.069zm12.536 9.766h.041v-11.583h2.058v14.403h-2.638l-6.558-11.862h-.048v11.862h-2.055v-14.403h2.808zm15.721-9.205a5.83 5.83 0 00-2.974-.806c-3.328 0-5.537 2.396-5.537 5.631 0 3.381 2.435 5.627 5.431 5.627 1.034 0 2.419-.271 3.14-.697l.124 1.999c-1.094.451-2.437.515-3.282.515-4.565 0-7.591-2.928-7.591-7.506 0-4.436 3.212-7.381 7.609-7.381 1.114 0 2.211.161 3.246.604zm10.89-.561h-6.014v4.194h5.477v1.817h-5.477v4.762h6.014v1.813h-8.068v-14.403h8.068zM197.39 99.102c0 3.272 1.898 5.586 5.208 5.586 3.305 0 5.204-2.313 5.204-5.586 0-3.198-1.915-5.586-5.204-5.586-3.292 0-5.208 2.388-5.208 5.586m1.636 0c0-2.19 1.179-4.234 3.572-4.216 2.39-.018 3.568 2.025 3.568 4.216 0 2.151-1.072 4.219-3.568 4.219-2.5 0-3.572-2.068-3.572-4.219m17.965-4.037h-4.198v3.151h4.012v1.367h-4.012v4.924h-1.549V93.699h5.747zm21.628-5.727h-7.232v5.085h6.586v2.178h-6.586v5.732h7.232v2.177h-9.728V87.16h9.728zm15.666 3.145a5.822 5.822 0 00-2.976-.804c-3.326 0-5.533 2.393-5.533 5.628 0 3.381 2.436 5.629 5.433 5.629 1.03 0 2.417-.271 3.138-.703l.123 2.003c-1.095.452-2.438.516-3.285.516-4.56 0-7.588-2.928-7.588-7.504 0-4.436 3.211-7.382 7.612-7.382 1.115 0 2.21.163 3.242.605zm3.711 4.824c0 4.37 2.527 7.442 6.938 7.442 4.408 0 6.938-3.072 6.938-7.442 0-4.268-2.552-7.443-6.938-7.443-4.386 0-6.938 3.176-6.938 7.443m2.177 0c0-2.928 1.573-5.649 4.764-5.628 3.187-.021 4.756 2.7 4.756 5.628 0 2.866-1.428 5.629-4.756 5.629-3.337 0-4.764-2.763-4.764-5.629m25.591 4.381h.041V90.106h2.061v14.401h-2.641l-6.556-11.86h-.041v11.86h-2.062V90.106h2.805zm6.769-4.381c0 4.37 2.526 7.442 6.938 7.442s6.938-3.072 6.938-7.442c0-4.268-2.552-7.443-6.938-7.443-4.386 0-6.938 3.176-6.938 7.443m2.181 0c0-2.928 1.571-5.649 4.76-5.628 3.188-.021 4.76 2.7 4.76 5.628 0 2.866-1.428 5.629-4.76 5.629-3.335 0-4.76-2.763-4.76-5.629m24.358 4.78l4.451-11.981h3.402v14.401h-2.061V92.042h-.041l-4.775 12.465h-2.025l-4.774-12.465h-.044v12.465h-2.06V90.106h3.403zm13.355-11.981h2.061v14.404h-2.061zm17.44 2.377a5.812 5.812 0 00-2.976-.804c-3.326 0-5.534 2.393-5.534 5.628 0 3.381 2.438 5.629 5.431 5.629 1.035 0 2.418-.271 3.141-.703l.125 2.003c-1.095.452-2.438.516-3.285.516-4.563 0-7.59-2.928-7.59-7.504 0-4.436 3.213-7.382 7.609-7.382 1.114 0 2.21.163 3.245.605zm11.017-.207c-1.05-.411-1.634-.598-2.711-.598-1.162 0-2.537.414-2.537 1.921 0 2.759 6.211 2.121 6.211 6.863 0 3.067-2.366 4.287-5.275 4.287-1.018 0-2.002-.287-2.95-.601l.208-1.915c.696.288 1.932.7 2.991.7 1.187 0 2.851-.66 2.851-2.351 0-3.217-6.216-2.332-6.216-6.804 0-2.557 2.019-3.919 4.634-3.919.961 0 2.098.166 3.082.521zm11.409 12.231h1.63l1.098-2.723h5.302l1.097 2.723h1.688l-4.569-10.813h-1.627zm7.528-3.993h-4.307l2.16-5.365zm13.049 1.898h.034v-8.717h1.548v10.812h-1.981l-4.905-8.893h-.034v8.893h-1.548V93.695h2.111zm5.571 2.095h3.188c3.555 0 5.743-1.879 5.743-5.496 0-3.326-2.547-5.313-5.743-5.313h-3.188zm1.55-9.441h1.809c2.229 0 3.94 1.482 3.94 4.008 0 2.782-1.464 4.067-4.125 4.067h-1.624z"/><path fill="#FD0001" d="M392.93 121.535h14.442v14.445H392.93z"/><path fill="none" d="M432.093 0H0v184.894h432.093V0"/></svg>